<svg width="20" height="20" viewBox="0 0 20 20" fill="none" xmlns="http://www.w3.org/2000/svg">
<path fill-rule="evenodd" clip-rule="evenodd" d="M0 10.0001C0 6.04691 0 4.07031 0.942013 2.64663C1.36267 2.01088 1.90712 1.46643 2.54287 1.04577C3.96655 0.10376 5.94315 0.10376 9.89634 0.10376C13.8495 0.10376 15.8261 0.10376 17.2498 1.04577C17.8856 1.46643 18.43 2.01088 18.8507 2.64663C19.7927 4.07031 19.7927 6.04691 19.7927 10.0001C19.7927 13.9533 19.7927 15.9299 18.8507 17.3536C18.43 17.9893 17.8856 18.5338 17.2498 18.9544C15.8261 19.8964 13.8495 19.8964 9.89634 19.8964C5.94315 19.8964 3.96655 19.8964 2.54287 18.9544C1.90712 18.5338 1.36267 17.9893 0.942013 17.3536C0 15.9299 0 13.9533 0 10.0001ZM15.0191 10.0003C15.0191 12.8299 12.7253 15.1237 9.89566 15.1237C7.06605 15.1237 4.7722 12.8299 4.7722 10.0003C4.7722 7.17068 7.06605 4.87683 9.89566 4.87683C12.7253 4.87683 15.0191 7.17068 15.0191 10.0003ZM9.89566 13.3903C11.7679 13.3903 13.2857 11.8726 13.2857 10.0003C13.2857 8.12801 11.7679 6.61023 9.89566 6.61023C8.02338 6.61023 6.5056 8.12801 6.5056 10.0003C6.5056 11.8726 8.02338 13.3903 9.89566 13.3903ZM15.2221 5.82335C15.887 5.82335 16.426 5.28437 16.426 4.61949C16.426 3.95462 15.887 3.41563 15.2221 3.41563C14.5572 3.41563 14.0183 3.95462 14.0183 4.61949C14.0183 5.28437 14.5572 5.82335 15.2221 5.82335Z" fill="#C69B7B"/>
</svg>
