<svg width="18" height="16" viewBox="0 0 18 16" fill="none" xmlns="http://www.w3.org/2000/svg">
<path d="M12.0271 0.00355161V0H12.8711L13.1794 0.0674806C13.385 0.11129 13.5717 0.168701 13.7394 0.239734C13.9071 0.310766 14.0694 0.393643 14.2263 0.488346C14.3832 0.58305 14.5255 0.679547 14.6532 0.777802C14.7798 0.874886 14.8934 0.977882 14.9941 1.08679C15.0936 1.19689 15.2489 1.22531 15.4599 1.17203C15.6709 1.11876 15.8981 1.04476 16.1416 0.950056C16.385 0.855352 16.6258 0.748804 16.8638 0.630411C17.1019 0.512018 17.2469 0.436848 17.2988 0.404883C17.3497 0.371747 17.3768 0.353989 17.38 0.351609L17.3832 0.346282L17.3995 0.337403L17.4157 0.328524L17.4319 0.319645L17.4482 0.310766L17.4514 0.305438L17.4563 0.301887L17.4612 0.298335L17.4644 0.293008L17.4806 0.28768L17.4968 0.284129L17.4936 0.310766L17.4887 0.337403L17.4806 0.36404L17.4725 0.390677L17.4644 0.408435L17.4563 0.426193L17.4482 0.45283C17.4427 0.470588 17.4373 0.49426 17.4319 0.523862C17.4265 0.553465 17.3751 0.67184 17.2777 0.879023C17.1803 1.08621 17.0586 1.29634 16.9125 1.50943C16.7665 1.72253 16.6355 1.88353 16.5198 1.99245C16.4029 2.10255 16.3255 2.1795 16.2876 2.22331C16.2498 2.26829 16.2038 2.30972 16.1497 2.34761L16.0685 2.40622L16.0523 2.41509L16.0361 2.42397L16.0328 2.4293L16.028 2.43285L16.0231 2.4364L16.0198 2.44173L16.0036 2.45061L15.9874 2.45949L15.9841 2.46482L15.9793 2.46837L15.9744 2.47192L15.9711 2.47725L15.9679 2.48257L15.963 2.48613L15.9582 2.48968L15.9549 2.49501H16.0361L16.4905 2.38846C16.7935 2.31743 17.083 2.2316 17.3589 2.13097L17.7971 1.97114L17.8458 1.95339L17.8702 1.94451L17.8864 1.93563L17.9026 1.92675L17.9188 1.91787L17.9351 1.90899L17.9675 1.90366L18 1.90011V1.93563L17.9919 1.93918L17.9838 1.94451L17.9805 1.94983L17.9757 1.95339L17.9708 1.95694L17.9675 1.96226L17.9643 1.96759L17.9594 1.97114L17.9546 1.97469L17.9513 1.98002L17.9481 1.98535L17.9432 1.9889L17.9351 2.00666L17.927 2.02442L17.9221 2.02797C17.9199 2.03152 17.8512 2.13214 17.716 2.32986C17.5807 2.52875 17.5077 2.62936 17.4968 2.63174C17.486 2.63529 17.4709 2.65305 17.4514 2.68502C17.433 2.71815 17.3183 2.85017 17.1073 3.08102C16.8963 3.31188 16.6897 3.51727 16.4873 3.69723C16.2839 3.87836 16.1811 4.10092 16.1789 4.36493C16.1757 4.62775 16.1632 4.92491 16.1416 5.25638C16.1199 5.58787 16.0794 5.94598 16.0198 6.33074C15.9603 6.71551 15.8684 7.15058 15.7439 7.63596C15.6195 8.12134 15.468 8.59489 15.2894 9.0566C15.1109 9.51831 14.9243 9.93266 14.7295 10.2997C14.5347 10.6667 14.3562 10.9774 14.1939 11.232C14.0316 11.4865 13.8666 11.7262 13.6988 11.9512C13.5311 12.1761 13.319 12.4295 13.0626 12.7112C12.8051 12.9918 12.6644 13.1457 12.6406 13.1729C12.6157 13.199 12.5097 13.2961 12.3225 13.4642C12.1363 13.6334 11.9362 13.8027 11.7219 13.972C11.5088 14.1401 11.3129 14.2804 11.1344 14.3929C10.9558 14.5054 10.7405 14.6338 10.4884 14.7782C10.2373 14.9239 9.96573 15.0588 9.67358 15.1831C9.38142 15.3074 9.07304 15.4229 8.74842 15.5294C8.42381 15.636 8.11001 15.7188 7.80703 15.778C7.50407 15.8372 7.16051 15.8875 6.77637 15.929L6.20018 15.9911V16H5.14518V15.9911L5.00721 15.9822C4.91525 15.9763 4.8395 15.9704 4.77998 15.9645C4.72048 15.9586 4.49594 15.926 4.1064 15.8668C3.71686 15.8076 3.41119 15.7484 3.18936 15.6892C2.96755 15.63 2.63751 15.5176 2.19928 15.3518C1.76105 15.1861 1.38611 15.0186 1.07448 14.8493C0.763937 14.6812 0.569167 14.5746 0.490171 14.5296C0.412263 14.4858 0.324617 14.4314 0.227232 14.3663L0.0811542 14.2686L0.0779243 14.2633L0.0730388 14.2597L0.0681695 14.2562L0.0649234 14.2508L0.0486925 14.242L0.0324617 14.2331L0.0292317 14.2277L0.0243463 14.2242L0.019477 14.2206L0.0162308 14.2153L0.0130009 14.21L0.00811542 14.2064H0V14.1709L0.0162308 14.1745L0.0324617 14.1798L0.1055 14.1887C0.154193 14.1946 0.28675 14.2035 0.503156 14.2153C0.719578 14.2272 0.949504 14.2272 1.19297 14.2153C1.43643 14.2035 1.68531 14.1768 1.93959 14.1354C2.19387 14.094 2.49414 14.0229 2.8404 13.9223C3.18667 13.8217 3.50479 13.7021 3.79479 13.5636C4.08369 13.4239 4.28927 13.3197 4.41156 13.2511C4.53274 13.1836 4.71777 13.0581 4.96664 12.8746L5.33995 12.5993L5.34319 12.594L5.34806 12.5905L5.35295 12.5869L5.35618 12.5816L5.35942 12.5762L5.36429 12.5727L5.36918 12.5691L5.37241 12.5638L5.38864 12.5585L5.40487 12.5549L5.40812 12.5372L5.41298 12.5194L5.41787 12.5159L5.4211 12.5105L5.29125 12.5017C5.20469 12.4958 5.12083 12.4898 5.03968 12.4839C4.95852 12.478 4.83139 12.4514 4.65825 12.404C4.48513 12.3566 4.29848 12.2856 4.09829 12.1909C3.89811 12.0962 3.70334 11.9837 3.51398 11.8535C3.32463 11.7233 3.18774 11.6149 3.10334 11.5285C3.02002 11.4433 2.91181 11.3225 2.77872 11.1663C2.64671 11.0088 2.53201 10.8472 2.43463 10.6815C2.33724 10.5157 2.24419 10.3245 2.15547 10.1079L2.02074 9.78468L2.01262 9.75805L2.00451 9.73141L1.99964 9.71365L1.99639 9.69589L2.02074 9.69945L2.04509 9.70477L2.22362 9.73141C2.34266 9.74917 2.52932 9.75508 2.78359 9.74917C3.03788 9.74325 3.21371 9.73141 3.31109 9.71365C3.40848 9.69589 3.46799 9.68405 3.48963 9.67814L3.52209 9.66926L3.56267 9.66038L3.60325 9.6515L3.60649 9.64617L3.61136 9.64262L3.61625 9.63907L3.61948 9.63374L3.58702 9.62486L3.55455 9.61598L3.52209 9.6071L3.48963 9.59822L3.45717 9.58935C3.43553 9.58343 3.39767 9.57159 3.34355 9.55383C3.28946 9.53607 3.14338 9.47095 2.90532 9.35849C2.66728 9.24603 2.47791 9.13652 2.33724 9.02997C2.19622 8.92311 2.06176 8.80625 1.93472 8.68013C1.80812 8.55228 1.66908 8.38771 1.51758 8.18646C1.3661 7.98521 1.23085 7.75139 1.11181 7.48502C0.992792 7.21865 0.903522 6.96412 0.844004 6.72142C0.784724 6.48015 0.745615 6.23348 0.727158 5.98446L0.697926 5.61154L0.714157 5.61509L0.730388 5.62042L0.746619 5.6293L0.762849 5.63818L0.77908 5.64706L0.795311 5.65594L1.04689 5.78024C1.21462 5.86312 1.42291 5.93415 1.67178 5.99334C1.92066 6.05253 2.06943 6.0851 2.11812 6.09101L2.19116 6.09989H2.33724L2.33401 6.09456L2.32913 6.09101L2.32426 6.08746L2.32101 6.08213L2.31778 6.0768L2.31289 6.07325L2.30803 6.0697L2.30478 6.06437L2.28855 6.05549L2.27232 6.04662L2.26909 6.04129L2.2642 6.03774L2.25933 6.03418L2.25609 6.02886L2.23986 6.01998L2.22362 6.0111L2.22039 6.00577C2.21715 6.00339 2.17061 5.96551 2.08079 5.89212C1.99206 5.81754 1.89901 5.72106 1.80162 5.60266C1.70424 5.48427 1.60685 5.35996 1.50947 5.22974C1.4119 5.09923 1.32501 4.95959 1.24977 4.81243C1.17404 4.66445 1.09396 4.4762 1.00956 4.24773C0.926245 4.02042 0.862945 3.79134 0.819657 3.56049C0.776386 3.32963 0.75204 3.10174 0.746619 2.8768C0.741214 2.65186 0.746619 2.45949 0.762849 2.29967C0.77908 2.13984 0.811542 1.9593 0.860234 1.75805C0.908927 1.55679 0.979271 1.3437 1.07124 1.11876L1.2092 0.781354L1.21731 0.754717L1.22543 0.72808L1.23031 0.724528L1.23354 0.719201L1.23679 0.713874L1.24166 0.710322L1.24654 0.713874L1.24977 0.719201L1.25302 0.724528L1.25789 0.72808L1.26278 0.731632L1.26601 0.736959L1.26925 0.742286L1.27412 0.745838L1.28224 0.763596L1.29035 0.781354L1.29524 0.784906L1.29847 0.790233L1.51758 1.0566C1.66366 1.23418 1.8368 1.43249 2.03697 1.6515C2.23716 1.87051 2.34807 1.98416 2.3697 1.99245C2.39135 2.00192 2.41839 2.02914 2.45086 2.07414C2.48332 2.11795 2.59153 2.22272 2.77547 2.38846C2.95943 2.55419 3.20019 2.74658 3.49775 2.96559C3.79532 3.1846 4.12534 3.40067 4.48783 3.61376C4.85033 3.82686 5.23987 4.01923 5.65645 4.1909C6.07304 4.36257 6.3652 4.47503 6.53291 4.5283C6.70064 4.58158 6.98738 4.64964 7.39315 4.73252C7.79892 4.8154 8.10461 4.86867 8.31019 4.89234C8.51579 4.91601 8.65646 4.92963 8.73219 4.93319L8.84581 4.93674L8.84258 4.9101L8.83769 4.88346L8.80523 4.66149C8.78359 4.51351 8.77277 4.30633 8.77277 4.03996C8.77277 3.77359 8.79171 3.52794 8.82958 3.303C8.86746 3.07806 8.92427 2.85017 9 2.61931C9.07575 2.38846 9.14988 2.20317 9.22236 2.06349C9.29595 1.92497 9.39225 1.76693 9.51127 1.58935C9.63031 1.41176 9.7845 1.22827 9.97385 1.03885C10.1632 0.849421 10.3796 0.680719 10.6231 0.532741C10.8665 0.384764 11.0911 0.272284 11.2967 0.195339C11.5023 0.118393 11.6754 0.0680666 11.8161 0.0443951C11.9567 0.0207236 12.0271 0.00710322 12.0271 0.00355161Z" fill="#C69B7B"/>
</svg>
